<?xml version="1.0" encoding="UTF-8" standalone="no"?>
<svg
   xmlns:dc="http://purl.org/dc/elements/1.1/"
   xmlns:cc="http://creativecommons.org/ns#"
   xmlns:rdf="http://www.w3.org/1999/02/22-rdf-syntax-ns#"
   xmlns:svg="http://www.w3.org/2000/svg"
   xmlns="http://www.w3.org/2000/svg"
   xmlns:sodipodi="http://sodipodi.sourceforge.net/DTD/sodipodi-0.dtd"
   xmlns:inkscape="http://www.inkscape.org/namespaces/inkscape"
   width="64"
   height="45"
   viewBox="0 0 64 39.689923"
   version="1.1"
   id="svg106"
   sodipodi:docname="logo.svg"
   inkscape:version="1.0 (4035a4f, 2020-05-01)">
  <metadata
     id="metadata112">
    <rdf:RDF>
      <cc:Work
         rdf:about="">
        <dc:format>image/svg+xml</dc:format>
        <dc:type
           rdf:resource="http://purl.org/dc/dcmitype/StillImage" />
        <dc:title>logo</dc:title>
      </cc:Work>
    </rdf:RDF>
  </metadata>
  <defs
     id="defs110" />
  <sodipodi:namedview
     inkscape:document-rotation="0"
     pagecolor="#ffffff"
     bordercolor="#666666"
     borderopacity="1"
     objecttolerance="10"
     gridtolerance="10"
     guidetolerance="10"
     inkscape:pageopacity="0"
     inkscape:pageshadow="2"
     inkscape:window-width="1604"
     inkscape:window-height="1005"
     id="namedview108"
     showgrid="false"
     inkscape:zoom="19.15625"
     inkscape:cx="32"
     inkscape:cy="20"
     inkscape:window-x="316"
     inkscape:window-y="1103"
     inkscape:window-maximized="0"
     inkscape:current-layer="Icon-Rght" />
  <title
     id="title88">logo</title>
  <g
     id="Page-1"
     transform="matrix(0.94076142,0,0,0.94080751,0,-0.5)">
    <g
       id="logo">
      <g
         id="Icon-Rght">
        <path
           d="m 31.889062,11.906666 c 0,-3.0611756 -1.227919,-5.9969249 -3.413536,-8.1611906 C 26.28991,1.5812097 23.3257,0.36578208 20.235218,0.36666582 h -8.58474 C 5.2160967,0.36666582 0,5.5333004 0,11.906666 v 19.436667 c 0,6.373365 5.2160967,11.539999 11.650478,11.539999 h 8.58474 c 3.091065,10e-4 6.055785,-1.215 8.241498,-3.379987 2.185713,-2.164987 3.413239,-5.101593 3.412346,-8.163346 v 0 z m -4.906527,4.86 c 0,2.349051 -1.922513,4.253333 -4.294053,4.253333 H 9.1972147 C 6.826989,21.018166 4.906526,19.114416 4.906526,16.766666 V 13.729999 C 4.9056593,12.602252 5.3572933,11.520391 6.16205,10.72264 6.966807,9.9248901 8.0586703,9.4766664 9.1972147,9.4766664 H 22.688482 c 2.37154,0 4.294053,1.9042816 4.294053,4.2533326 z"
           id="Shape"
           style="stroke-width:0.334927" />
        <path
           d="m 12.046979,14.932749 c -0.0406,-1.012519 -0.821765,-1.811084 -1.771614,-1.811084 -0.9498496,0 -1.7310117,0.798565 -1.771615,1.811084 v 0 0.6295 0 c 0.040603,1.012518 0.8217654,1.811083 1.771615,1.811083 0.949849,0 1.731011,-0.798565 1.771614,-1.811083 v 0 -0.632959 z"
           id="Path"
           style="stroke-width:0.33485" />
        <path
           d="m 23.03099,14.944284 c 0,-1.006605 -0.793179,-1.822619 -1.771615,-1.822619 -0.978436,0 -1.771614,0.816014 -1.771614,1.822619 v 0 0.606429 0 c 0,1.006605 0.793178,1.822619 1.771614,1.822619 0.978436,0 1.771615,-0.816014 1.771615,-1.822619 v 0 -0.609761 z"
           id="path92"
           style="stroke-width:0.328508" />
        <path
           d="m 68.030002,11.906665 c 0,-6.3733656 -5.216647,-11.53999966 -11.65171,-11.53999966 h -8.585647 c -6.43506,0 -11.651707,5.16663406 -11.651707,11.53999966 v 19.436667 c 0,6.373366 5.216647,11.54 11.651707,11.54 h 8.585647 c 3.09081,0 6.054976,-1.216274 8.240193,-3.381167 2.185217,-2.16489 3.412407,-5.10099 3.411517,-8.162167 v 0 z m -2.450157,0.48 v 18.956667 c -0.0056,5.03087 -4.121983,9.107823 -9.201553,9.113333 h -8.585647 c -5.079023,-0.0055 -9.194477,-4.083 -9.198183,-9.113333 V 11.906665 c 0.0056,-5.0290293 4.120473,-9.1044884 9.198183,-9.1099996 h 8.585647 c 5.078256,0.00551 9.194133,4.0804313 9.201553,9.1099996 z"
           id="path94"
           style="stroke-width:0.334943" />
        <rect
           id="Rectangle"
           x="56.337341"
           y="9.2243042"
           width="2.4802604"
           height="10.629167"
           style="stroke-width:0.352158" />
        <path
           d="m 43.227395,27.072675 v 3.985483 c 0.0018,1.83377 1.38846,3.31983 3.099476,3.321841 h 4.341305 v -2.658202 h -4.341305 c -0.341984,0 -0.619216,-0.297121 -0.619216,-0.663639 v -3.985483 c 0,-0.366518 0.277232,-0.663639 0.619216,-0.663639 h 4.341305 v -2.658204 h -4.341305 c -1.711016,0.002 -3.097604,1.488072 -3.099476,3.321843 z"
           id="path97"
           style="stroke-width:0.352222" />
        <polygon
           id="polygon99"
           points="169.47,92.940003 169.47,89.290003 180.41,89.290003 180.41,82.000003 169.47,82.000003 169.47,78.360003 184.05,78.360003 184.05,71.070003 162.18,71.070003 162.18,100.22 184.05,100.22 184.05,92.940003 "
           transform="matrix(0.34022777,0,0,0.36463698,-1.3210556,-2.1639188)" />
        <path
           d="M 50.241614,13.52117 V 11.52729 C 50.239863,10.060541 49.19409,8.8720067 47.903542,8.8699988 H 43.227395 V 19.499165 h 2.338073 v -3.320702 h 1.254029 l 1.282893,3.320702 h 2.565786 l -1.472119,-3.769052 c 0.651157,-0.491735 1.043397,-1.320411 1.045557,-2.208943 z m -4.676146,0 v -1.99388 h 2.338074 v 1.99388 z"
           id="path101"
           style="stroke-width:0.341918" />
      </g>
    </g>
  </g>
</svg>
